<svg width="36" height="36" viewBox="0 0 36 36" fill="none"
    xmlns="http://www.w3.org/2000/svg">
    <circle cx="18" cy="18" r="18" fill="#27ae60"/>
    <path d="M25 12.5C25 13.72 24.72 14.25 24.425 14.545C24.3493 14.6204 24.2711 14.6935 24.191 14.764C25.907 16.01 27 18.145 27 20.5C27 24.64 22.97 28 18 28C13.03 28 9 24.64 9 20.5C9 18.145 10.093 16.01 11.809 14.764C11.7314 14.6949 11.6554 14.6202 11.575 14.545C11.28 14.25 11 13.72 11 12.5C11 11.165 12.165 10 13.5 10C14.06 10 14.575 10.19 15 10.51C15.95 9.58 17.19 9 18.5 9C19.81 9 21.05 9.58 22 10.51C22.425 10.19 22.94 10 23.5 10C24.835 10 26 11.165 26 12.5H25ZM19.75 15H16.25C15.835 15 15.5 15.335 15.5 15.75C15.5 16.165 15.835 16.5 16.25 16.5H19.75C20.165 16.5 20.5 16.165 20.5 15.75C20.5 15.335 20.165 15 19.75 15ZM21 21.25C21 21.94 20.44 22.5 19.75 22.5H16.25C15.56 22.5 15 21.94 15 21.25C15 20.56 15.56 20 16.25 20H19.75C20.44 20 21 20.56 21 21.25Z" fill="white"/>
</svg> 